<?xml version="1.0" standalone="no"?>
<!DOCTYPE svg PUBLIC "-//W3C//DTD SVG 20010904//EN"
 "http://www.w3.org/TR/2001/REC-SVG-20010904/DTD/svg10.dtd">
<svg version="1.0" xmlns="http://www.w3.org/2000/svg"
 width="2784.000000pt" height="518.000000pt" viewBox="0 0 2784.000000 518.000000"
 preserveAspectRatio="xMidYMid meet">

<g transform="translate(0.000000,518.000000) scale(0.100000,-0.100000)"
fill="#000000" stroke="none">
<path d="M1614 5169 c-440 -39 -875 -260 -1164 -592 -207 -236 -351 -527 -413
-831 -22 -110 -22 -120 -22 -946 0 -1244 11 -1339 190 -1705 70 -145 91 -165
168 -165 50 0 88 24 112 70 24 46 18 73 -44 202 -70 147 -115 281 -135 403
-25 150 -46 758 -46 1311 0 627 9 738 81 956 146 449 509 815 956 964 192 65
266 75 578 81 305 6 322 9 350 63 37 71 9 157 -61 186 -38 16 -388 18 -550 3z"/>
<path d="M2773 5166 c-49 -23 -75 -71 -70 -130 4 -42 10 -55 41 -83 l36 -33
233 0 c357 0 528 -23 761 -100 423 -142 765 -438 964 -835 306 -612 215 -1321
-240 -1860 -42 -49 -391 -403 -775 -785 -758 -755 -775 -771 -1004 -889 -478
-248 -1059 -248 -1540 0 -64 33 -150 87 -190 120 -88 70 -131 87 -182 70 -55
-18 -87 -63 -87 -119 0 -28 7 -58 18 -74 38 -61 242 -198 398 -269 262 -118
512 -170 819 -170 438 -1 813 122 1165 382 108 79 1486 1450 1603 1594 329
406 484 889 447 1387 -35 466 -214 871 -534 1206 -299 312 -689 509 -1148 578
-152 23 -671 30 -715 10z"/>
<path d="M1675 4573 c-351 -34 -673 -224 -866 -509 -71 -105 -135 -244 -166
-361 -26 -95 -27 -109 -31 -424 l-3 -326 26 -31 c51 -61 148 -62 198 -2 l25
29 4 288 c5 270 7 294 31 386 91 342 339 583 695 675 61 15 143 17 912 17 925
0 899 1 1082 -61 83 -28 108 -30 152 -9 41 20 66 63 66 115 0 82 -39 116 -185
158 -194 57 -172 56 -1070 58 -456 1 -848 -1 -870 -3z"/>
<path d="M4149 4001 c-55 -55 -54 -98 5 -200 91 -154 137 -293 157 -465 29
-256 -51 -543 -211 -754 -33 -44 -166 -182 -296 -308 -130 -126 -242 -241
-250 -256 -18 -35 -18 -92 1 -128 20 -39 63 -60 120 -60 46 0 48 1 203 149
232 220 392 386 451 471 29 41 78 124 107 185 97 196 137 368 137 595 0 223
-39 397 -133 588 -89 183 -126 222 -211 222 -35 0 -48 -6 -80 -39z"/>
<path d="M1683 3969 c-221 -38 -419 -223 -463 -432 -7 -37 -10 -313 -8 -902
l3 -850 28 -75 c83 -225 251 -391 472 -466 64 -22 104 -28 202 -32 186 -7 319
30 459 126 33 23 367 350 765 749 685 687 707 710 748 790 61 120 83 214 83
353 0 218 -64 373 -217 525 -100 101 -191 156 -325 196 l-75 23 -810 2 c-445
1 -833 -2 -862 -7z m1701 -276 c237 -91 370 -320 322 -553 -32 -153 -5 -121
-755 -874 -377 -378 -709 -703 -737 -722 -197 -128 -477 -89 -629 89 -51 59
-103 171 -115 247 -6 40 -10 353 -10 800 0 796 0 804 54 889 37 59 103 109
171 131 57 18 93 19 850 17 790 -2 790 -2 849 -24z"/>
<path d="M7171 3949 c-210 -41 -366 -161 -445 -342 -43 -97 -59 -184 -65 -357
l-6 -165 -71 -5 c-56 -4 -81 -11 -119 -35 -139 -86 -140 -304 -1 -389 37 -23
64 -31 119 -35 l72 -6 5 -801 5 -801 30 -48 c59 -96 148 -141 260 -132 75 6
129 32 182 90 75 82 73 52 73 924 l0 773 209 0 209 0 53 28 c112 58 154 200
93 313 -29 52 -80 93 -135 109 -19 6 -126 10 -238 10 l-204 0 5 108 c7 159 46
236 143 278 31 14 70 18 170 19 138 1 162 7 214 50 116 98 100 293 -31 379
-43 28 -171 45 -333 45 -82 -1 -170 -5 -194 -10z"/>
<path d="M17417 3946 c-88 -33 -146 -91 -175 -175 -9 -24 -12 -171 -12 -499
l0 -465 -74 70 c-125 119 -232 184 -383 230 -82 25 -101 27 -268 27 -154 0
-192 -4 -260 -22 -95 -26 -239 -94 -327 -153 -136 -93 -276 -263 -349 -425
-123 -275 -144 -658 -54 -968 154 -530 669 -849 1193 -740 162 34 305 115 440
251 l82 83 0 -53 c0 -152 105 -265 257 -275 87 -6 155 19 213 77 86 86 80 -30
80 1480 0 879 -4 1349 -10 1373 -18 62 -70 129 -128 161 -64 36 -164 46 -225
23z m-672 -1301 c352 -74 561 -455 469 -855 -54 -235 -240 -434 -455 -485
-130 -30 -298 -9 -412 52 -69 37 -184 148 -226 218 -196 325 -115 794 170 984
133 89 294 119 454 86z"/>
<path d="M27010 3665 c-7 -8 -10 -25 -6 -39 5 -22 12 -25 64 -28 l57 -3 3
-149 c1 -90 7 -155 14 -163 16 -19 56 -16 68 6 5 11 10 84 10 165 l0 146 53 0
c71 0 98 28 61 64 -22 23 -305 24 -324 1z"/>
<path d="M27442 3668 c-8 -8 -12 -66 -12 -193 0 -191 3 -205 47 -205 34 0 43
29 43 140 l0 102 43 -64 c60 -90 80 -90 138 -1 l44 68 3 -117 c3 -116 3 -118
27 -124 51 -13 55 3 55 196 0 98 -3 185 -6 194 -4 10 -18 16 -39 16 -31 0 -37
-6 -93 -95 l-60 -96 -38 63 c-63 106 -82 128 -113 128 -15 0 -32 -5 -39 -12z"/>
<path d="M8825 3124 c-349 -62 -646 -268 -825 -573 -91 -156 -138 -325 -147
-527 -9 -218 20 -377 101 -550 206 -437 646 -695 1145 -671 654 31 1141 531
1141 1172 0 577 -410 1057 -980 1150 -117 18 -327 18 -435 -1z m370 -489 c116
-30 203 -81 295 -174 143 -144 194 -276 194 -496 0 -207 -50 -346 -174 -478
-77 -82 -146 -127 -252 -165 -65 -23 -88 -26 -208 -26 -122 0 -142 3 -209 27
-267 97 -441 355 -441 652 1 325 192 590 476 659 80 19 245 20 319 1z"/>
<path d="M14115 3124 c-145 -31 -334 -145 -427 -257 l-43 -51 -7 58 c-20 155
-142 255 -298 244 -55 -4 -81 -12 -117 -34 -56 -35 -108 -99 -123 -152 -6 -24
-10 -354 -10 -957 0 -603 4 -933 10 -957 15 -53 68 -118 125 -153 44 -27 56
-30 134 -30 77 0 91 3 141 31 60 33 112 99 130 162 6 23 10 249 10 603 0 531
1 571 20 643 11 43 34 104 51 137 155 290 627 304 776 22 69 -129 67 -104 73
-788 6 -681 3 -652 68 -726 52 -60 114 -84 212 -84 75 0 91 3 132 27 25 16 60
45 77 65 64 77 62 59 59 835 l-4 703 -26 97 c-77 282 -257 473 -518 548 -101
29 -342 37 -445 14z"/>
<path d="M19043 3126 c-456 -87 -794 -442 -878 -923 -20 -113 -20 -354 0 -469
82 -467 412 -810 875 -910 64 -14 129 -18 260 -19 183 0 272 12 405 56 149 50
339 167 416 257 84 98 79 226 -11 314 -39 37 -59 48 -104 58 -88 18 -124 6
-248 -82 -132 -95 -248 -136 -414 -145 -296 -17 -532 143 -619 420 -14 43 -25
80 -25 82 0 3 321 6 713 7 l712 3 53 29 c96 53 131 122 132 257 1 230 -84 481
-227 674 -139 187 -324 312 -553 372 -118 31 -370 41 -487 19z m338 -462 c127
-37 224 -113 293 -228 35 -59 79 -178 92 -248 l6 -38 -536 0 c-615 0 -552 -13
-515 106 63 208 207 362 380 408 73 20 212 20 280 0z"/>
<path d="M23609 3125 c-434 -82 -764 -419 -865 -885 -26 -120 -26 -420 -1
-538 101 -461 420 -782 872 -877 44 -9 139 -19 210 -22 273 -11 517 53 720
190 158 106 205 171 205 278 -1 128 -87 221 -207 223 -79 1 -99 -6 -179 -65
-144 -107 -281 -158 -444 -166 -295 -14 -518 129 -614 395 -45 126 -130 112
667 112 446 0 705 4 729 10 88 25 169 122 182 220 3 25 2 91 -4 146 -49 481
-349 848 -788 966 -102 27 -371 34 -483 13z m340 -460 c180 -48 322 -203 375
-411 9 -34 16 -71 16 -83 l0 -21 -535 0 c-294 0 -535 3 -535 8 0 4 9 41 20 81
62 223 199 373 390 427 62 17 204 17 269 -1z"/>
<path d="M26266 3120 c-132 -23 -305 -155 -405 -307 l-48 -73 -6 89 c-6 103
-21 143 -74 201 -130 146 -366 111 -449 -65 l-24 -50 0 -941 c0 -1044 -4 -976
67 -1055 59 -65 104 -84 203 -84 75 0 91 3 131 27 54 32 102 84 126 136 15 33
18 93 24 502 5 435 7 471 28 550 73 285 251 466 522 531 106 25 154 52 196
107 42 55 56 111 51 192 -8 102 -65 189 -148 224 -47 19 -134 26 -194 16z"/>
<path d="M10763 3107 c-60 -22 -117 -72 -148 -128 l-30 -54 -3 -655 c-4 -813
2 -873 104 -1071 145 -280 446 -427 796 -389 205 23 376 110 511 262 l54 60 7
-57 c8 -68 26 -107 75 -158 60 -64 103 -82 201 -82 100 0 144 19 204 85 76 85
71 6 71 1055 0 1051 6 970 -72 1056 -52 57 -104 81 -191 87 -66 4 -78 2 -136
-27 -44 -22 -75 -45 -96 -74 -60 -81 -60 -85 -60 -707 0 -532 -1 -572 -20
-644 -25 -98 -62 -167 -122 -227 -159 -160 -470 -168 -633 -18 -56 52 -86 101
-116 194 -23 69 -23 77 -29 690 l-5 620 -23 47 c-29 59 -89 112 -150 132 -53
19 -143 20 -189 3z"/>
<path d="M20595 3096 c-119 -55 -182 -173 -157 -292 13 -61 762 -1781 804
-1846 63 -99 152 -148 269 -148 127 0 209 43 280 147 17 25 205 442 416 927
365 836 385 885 390 954 7 91 -13 149 -72 207 -66 66 -177 92 -276 65 -63 -18
-128 -85 -169 -175 -21 -44 -154 -378 -296 -742 -142 -364 -262 -659 -265
-655 -4 4 -127 318 -274 697 -147 380 -278 710 -290 735 -68 132 -227 188
-360 126z"/>
<path d="M672 2404 c-59 -30 -62 -45 -62 -337 0 -298 10 -378 65 -544 112
-335 359 -619 678 -779 101 -51 258 -101 377 -120 141 -22 409 -15 526 15 128
32 201 59 315 118 156 80 249 156 497 405 l222 224 0 55 c0 61 -16 91 -60 114
-34 18 -93 20 -123 4 -12 -6 -125 -114 -252 -238 -238 -235 -311 -293 -447
-355 -147 -68 -289 -99 -458 -99 -293 0 -557 110 -765 318 -156 156 -249 328
-301 560 -11 50 -17 147 -21 334 l-6 264 -31 35 c-39 42 -102 53 -154 26z"/>
</g>
</svg>
